<?xml version="1.0" encoding="UTF-8" standalone="no"?>
<svg
   xmlns:dc="http://purl.org/dc/elements/1.1/"
   xmlns:cc="http://creativecommons.org/ns#"
   xmlns:rdf="http://www.w3.org/1999/02/22-rdf-syntax-ns#"
   xmlns:svg="http://www.w3.org/2000/svg"
   xmlns="http://www.w3.org/2000/svg"
   xmlns:sodipodi="http://sodipodi.sourceforge.net/DTD/sodipodi-0.dtd"
   xmlns:inkscape="http://www.inkscape.org/namespaces/inkscape"
   width="19.191601mm"
   height="211.61447mm"
   viewBox="0 0 19.191601 211.61447"
   version="1.1"
   id="svg1062"
   inkscape:version="1.0 (4035a4f, 2020-05-01)"
   sodipodi:docname="cuadrado.svg">
  <defs
     id="defs1056" />
  <sodipodi:namedview
     id="base"
     pagecolor="#ffffff"
     bordercolor="#666666"
     borderopacity="1.0"
     inkscape:pageopacity="0.0"
     inkscape:pageshadow="2"
     inkscape:zoom="0.64334403"
     inkscape:cx="-310.22989"
     inkscape:cy="394.69435"
     inkscape:document-units="mm"
     inkscape:current-layer="layer1"
     inkscape:document-rotation="0"
     showgrid="false"
     inkscape:window-width="1278"
     inkscape:window-height="743"
     inkscape:window-x="80"
     inkscape:window-y="0"
     inkscape:window-maximized="0"
     inkscape:object-paths="true"
     inkscape:snap-intersection-paths="true"
     inkscape:snap-midpoints="true"
     inkscape:snap-smooth-nodes="true" />
  <metadata
     id="metadata1059">
    <rdf:RDF>
      <cc:Work
         rdf:about="">
        <dc:format>image/svg+xml</dc:format>
        <dc:type
           rdf:resource="http://purl.org/dc/dcmitype/StillImage" />
        <dc:title />
      </cc:Work>
    </rdf:RDF>
  </metadata>
  <g
     style="display:inline"
     inkscape:label="Capa 1"
     inkscape:groupmode="layer"
     id="layer1"
     transform="translate(-100.92705,-40.017321)">
    <path
       id="rect4102"
       style="opacity:1;fill:#000000;fill-opacity:1;stroke:#000000;stroke-width:0;stroke-linejoin:round;stroke-miterlimit:4;stroke-dasharray:none;stroke-opacity:1"
       d="M 100.92705,40.017321 V 251.63179 h 14.78566 v -0.0496 l 4.40594,-4.40645 -4.40594,-4.40696 4.40594,-4.40645 -4.40594,-4.40645 4.40594,-4.40645 -4.40594,-4.40697 4.40594,-4.40645 -4.40594,-4.40645 4.40594,-4.40644 -4.40594,-4.40645 4.40594,-4.40697 -4.40594,-4.40645 4.40594,-4.40645 -4.40594,-4.40645 4.40594,-4.40645 -4.40594,-4.40645 4.40594,-4.40645 -4.40594,-4.40696 4.40594,-4.40594 -4.40594,-4.40696 4.40594,-4.40645 -4.40594,-4.40645 4.40594,-4.40697 -4.40594,-4.40645 4.40594,-4.40644 -4.40594,-4.40645 4.40594,-4.40645 -4.40594,-4.40645 4.40594,-4.40697 -4.40594,-4.40645 4.40594,-4.40645 -4.40594,-4.40645 4.40594,-4.40645 -4.40594,-4.40645 4.40594,-4.406443 -4.40594,-4.406969 4.40594,-4.405931 -4.40594,-4.406966 4.40594,-4.406967 -4.40594,-4.405931 4.40594,-4.406966 -4.40594,-4.40645 4.40594,-4.406449 -4.40594,-4.40645 4.40594,-4.406966 -4.40594,-4.405933 4.40594,-4.406966 -4.40594,-4.406449 v -0.05064 z" />
    <rect
       y="132.75468"
       x="-119.92531"
       height="47.908424"
       width="41.942413"
       id="rect831"
       style="fill:none;stroke:#907aa9;stroke-width:0;stroke-linejoin:round" />
  </g>
</svg>
