<?xml version="1.0" encoding="UTF-8" standalone="no"?>
<svg
   xmlns:dc="http://purl.org/dc/elements/1.1/"
   xmlns:cc="http://creativecommons.org/ns#"
   xmlns:rdf="http://www.w3.org/1999/02/22-rdf-syntax-ns#"
   xmlns:svg="http://www.w3.org/2000/svg"
   xmlns="http://www.w3.org/2000/svg"
   xmlns:sodipodi="http://sodipodi.sourceforge.net/DTD/sodipodi-0.dtd"
   xmlns:inkscape="http://www.inkscape.org/namespaces/inkscape"
   width="1.964021mm"
   height="2.969661mm"
   viewBox="0 0 1.964021 2.969661"
   version="1.1"
   id="svg6177"
   inkscape:version="0.92.5 (2060ec1f9f, 2020-04-08)"
   sodipodi:docname="humo3.svg">
  <defs
     id="defs6171" />
  <sodipodi:namedview
     id="base"
     pagecolor="#ffffff"
     bordercolor="#666666"
     borderopacity="1.0"
     inkscape:pageopacity="0.0"
     inkscape:pageshadow="2"
     inkscape:zoom="2.8"
     inkscape:cx="3.2132975"
     inkscape:cy="35.726628"
     inkscape:document-units="mm"
     inkscape:current-layer="layer1"
     inkscape:document-rotation="0"
     showgrid="false"
     inkscape:window-width="1278"
     inkscape:window-height="768"
     inkscape:window-x="80"
     inkscape:window-y="0"
     inkscape:window-maximized="0" />
  <metadata
     id="metadata6174">
    <rdf:RDF>
      <cc:Work
         rdf:about="">
        <dc:format>image/svg+xml</dc:format>
        <dc:type
           rdf:resource="http://purl.org/dc/dcmitype/StillImage" />
        <dc:title />
      </cc:Work>
    </rdf:RDF>
  </metadata>
  <g
     inkscape:label="Capa 1"
     inkscape:groupmode="layer"
     id="layer1"
     transform="translate(-47.054028,-25.791453)">
    <path
       style="opacity:0.99500002;fill:#fc98db;fill-opacity:1;stroke:#907aa9;stroke-width:0;stroke-linejoin:round"
       id="path3859"
       d="m 47.396538,28.584943 c -0.006,-0.0837 -0.004,-0.16784 -0.004,-0.25173 -0.008,-0.1035 0.0115,-0.20179 0.0374,-0.3008 0.0288,-0.10715 0.0951,-0.19458 0.16639,-0.27683 0.11379,-0.12512 0.23235,-0.24545 0.35322,-0.36371 0.11326,-0.10545 0.22006,-0.21689 0.32496,-0.33051 0.10776,-0.10272 0.21727,-0.20458 0.30766,-0.32332 0.0686,-0.10728 0.1325,-0.21768 0.18997,-0.33139 0.0513,-0.0953 0.082,-0.19988 0.12075,-0.30075 0.0484,-0.10207 0.0829,-0.20988 0.12516,-0.31445 0,0 -0.34286,0.1592 -0.34286,0.1592 v 0 c -0.0382,0.10532 -0.0744,0.21139 -0.12164,0.31296 -0.0386,0.10076 -0.0725,0.20338 -0.12425,0.29826 -0.0556,0.1104 -0.11406,0.22002 -0.18546,0.32106 -0.0956,0.11508 -0.20439,0.21731 -0.31123,0.32192 -0.10283,0.11184 -0.209,0.22058 -0.31864,0.32594 -0.1223,0.12147 -0.24518,0.24249 -0.36055,0.37054 -0.0718,0.0879 -0.13669,0.18107 -0.16289,0.29358 -0.0252,0.10181 -0.0401,0.20366 -0.0325,0.30906 -7.91e-4,0.0858 2.91e-4,0.17153 -0.004,0.25714 0,0 0.3457,-0.17617 0.3457,-0.17617 z"
       inkscape:connector-curvature="0" />
  </g>
</svg>
