<?xml version="1.0" encoding="UTF-8" standalone="no"?>
<svg
   xmlns:dc="http://purl.org/dc/elements/1.1/"
   xmlns:cc="http://creativecommons.org/ns#"
   xmlns:rdf="http://www.w3.org/1999/02/22-rdf-syntax-ns#"
   xmlns:svg="http://www.w3.org/2000/svg"
   xmlns="http://www.w3.org/2000/svg"
   xmlns:sodipodi="http://sodipodi.sourceforge.net/DTD/sodipodi-0.dtd"
   xmlns:inkscape="http://www.inkscape.org/namespaces/inkscape"
   width="3.0538502mm"
   height="8.5752621mm"
   viewBox="0 0 3.0538502 8.5752621"
   version="1.1"
   id="svg6177"
   inkscape:version="0.92.5 (2060ec1f9f, 2020-04-08)"
   sodipodi:docname="humo_1.svg">
  <defs
     id="defs6171" />
  <sodipodi:namedview
     id="base"
     pagecolor="#ffffff"
     bordercolor="#666666"
     borderopacity="1.0"
     inkscape:pageopacity="0.0"
     inkscape:pageshadow="2"
     inkscape:zoom="3.959798"
     inkscape:cx="12.485974"
     inkscape:cy="-4.6734349"
     inkscape:document-units="mm"
     inkscape:current-layer="layer1"
     inkscape:document-rotation="0"
     showgrid="false"
     inkscape:window-width="1278"
     inkscape:window-height="768"
     inkscape:window-x="80"
     inkscape:window-y="0"
     inkscape:window-maximized="0"
     inkscape:object-nodes="false"
     inkscape:snap-others="false" />
  <metadata
     id="metadata6174">
    <rdf:RDF>
      <cc:Work
         rdf:about="">
        <dc:format>image/svg+xml</dc:format>
        <dc:type
           rdf:resource="http://purl.org/dc/dcmitype/StillImage" />
        <dc:title></dc:title>
      </cc:Work>
    </rdf:RDF>
  </metadata>
  <g
     inkscape:label="Capa 1"
     inkscape:groupmode="layer"
     id="layer1"
     transform="translate(-87.945035,2.2172379)">
    <g
       transform="translate(44.578377,-12.379764)"
       id="layer1-3"
       inkscape:label="Capa 1">
      <path
         inkscape:connector-curvature="0"
         d="m 45.697598,18.59498 c 0.004,-0.004 0.0115,-0.007 0.0145,-0.0135 0.0129,-0.0164 0.0245,-0.0342 0.0374,-0.0512 0.0238,-0.0305 0.0491,-0.0601 0.0741,-0.0893 0.053,-0.0595 0.0907,-0.13048 0.13619,-0.195911 0.0412,-0.0807 0.0661,-0.16788 0.0994,-0.25151 0.0295,-0.0658 0.0495,-0.13344 0.0586,-0.20471 0.0115,-0.0763 0.0145,-0.1516 0.0145,-0.22858 0.003,-0.12485 0.003,-0.24992 0.004,-0.37485 -0.003,-0.1229 -0.0439,-0.239719 -0.087,-0.35335 -0.0406,-0.127971 -0.106439,-0.245221 -0.176759,-0.359001 -0.0737,-0.12043 -0.17023,-0.22187 -0.27619,-0.31411 -0.11688,-0.0991 -0.24825,-0.18007 -0.38527,-0.24774 -0.12812,-0.0611 -0.26066,-0.11275 -0.38708,-0.17787 -0.0215,-0.0117 -0.0435,-0.0239 -0.065,-0.0358 0,0 -0.30944,0.20182 -0.30944,0.20182 v 0 c 0.0217,0.0117 0.0438,0.0243 0.0655,0.0362 0.12551,0.068 0.25737,0.12134 0.38756,0.17946 0.13669,0.0622 0.26383,0.1452 0.38196,0.23791 0.10283,0.0894 0.19113,0.19313 0.2655,0.30778 0.07,0.11053 0.13457,0.22563 0.17561,0.35043 0.0374,0.1117 0.0745,0.22534 0.0764,0.34434 7.99e-4,0.12433 2.8e-4,0.24892 -0.004,0.37325 -0.006,0.0767 -0.0169,0.15267 -0.0252,0.22918 -0.0115,0.0674 -0.0322,0.13182 -0.058,0.194921 -0.0305,0.0829 -0.0568,0.168579 -0.10389,0.244119 -0.0437,0.0659 -0.0852,0.13397 -0.13877,0.192661 -0.0426,0.0517 -0.082,0.109359 -0.13748,0.148169 0,0 0.36106,-0.143189 0.36106,-0.143189 z"
         id="path3851"
         style="opacity:0.99500002;fill:#fc98db;fill-opacity:1;stroke:#907aa9;stroke-width:0;stroke-linejoin:round" />
    </g>
  </g>
</svg>
