<?xml version="1.0" encoding="UTF-8" standalone="no"?>
<svg
   xmlns:dc="http://purl.org/dc/elements/1.1/"
   xmlns:cc="http://creativecommons.org/ns#"
   xmlns:rdf="http://www.w3.org/1999/02/22-rdf-syntax-ns#"
   xmlns:svg="http://www.w3.org/2000/svg"
   xmlns="http://www.w3.org/2000/svg"
   xmlns:sodipodi="http://sodipodi.sourceforge.net/DTD/sodipodi-0.dtd"
   xmlns:inkscape="http://www.inkscape.org/namespaces/inkscape"
   width="65.558472mm"
   height="32.740971mm"
   viewBox="0 0 65.558472 32.740971"
   version="1.1"
   id="svg6177"
   inkscape:version="1.0 (4035a4f, 2020-05-01)"
   sodipodi:docname="humo2.svg">
  <defs
     id="defs6171" />
  <sodipodi:namedview
     id="base"
     pagecolor="#ffffff"
     bordercolor="#666666"
     borderopacity="1.0"
     inkscape:pageopacity="0.0"
     inkscape:pageshadow="2"
     inkscape:zoom="2.8"
     inkscape:cx="121.05226"
     inkscape:cy="47.463288"
     inkscape:document-units="mm"
     inkscape:current-layer="layer1"
     inkscape:document-rotation="0"
     showgrid="false"
     inkscape:window-width="1278"
     inkscape:window-height="768"
     inkscape:window-x="80"
     inkscape:window-y="0"
     inkscape:window-maximized="0" />
  <metadata
     id="metadata6174">
    <rdf:RDF>
      <cc:Work
         rdf:about="">
        <dc:format>image/svg+xml</dc:format>
        <dc:type
           rdf:resource="http://purl.org/dc/dcmitype/StillImage" />
        <dc:title></dc:title>
      </cc:Work>
    </rdf:RDF>
  </metadata>
  <g
     inkscape:label="Capa 1"
     inkscape:groupmode="layer"
     id="layer1"
     transform="translate(-15.875802,-9.7276618)">
    <path
       style="opacity:0.995;fill:#fc98db;fill-opacity:1;stroke:#907aa9;stroke-width:0;stroke-linejoin:round"
       id="path3857"
       d="m 44.541978,15.29677 c -0.0602,-0.0871 -0.12346,-0.17133 -0.18276,-0.25872 -0.10337,-0.15409 -0.18502,-0.3209 -0.26727,-0.48676 -0.0958,-0.21802 -0.20544,-0.4297 -0.29254,-0.65141 -0.0626,-0.17703 -0.11302,-0.36259 -0.12542,-0.551 -7.99e-4,-0.0332 -7.99e-4,-0.0664 -7.99e-4,-0.0995 0.004,-0.22448 0.13104,-0.41121 0.25533,-0.58866 0.16119,-0.21151 0.36103,-0.38796 0.56315,-0.55883 0.0942,-0.0703 0.0994,-0.0769 0.19517,-0.13847 0.0279,-0.018 0.11431,-0.0687 0.0852,-0.0522 -0.48348,0.27568 -0.26429,0.14552 -0.17162,0.10948 0.0225,-0.007 0.0457,-0.0156 0.0687,-0.0223 0.15954,-0.0465 0.28845,-0.0242 0.44326,0.0225 0.15473,0.0479 0.28894,0.13889 0.4192,0.23236 0.13152,0.10051 0.22446,0.23713 0.31575,0.37305 0.099,0.15534 0.1552,0.329191 0.19392,0.50781 0.033,0.17955 0.0375,0.36254 0.0392,0.54457 -0.004,0.10715 -0.0204,0.21415 -0.0586,0.3146 -0.008,0.0185 -0.0129,0.0378 -0.024,0.0545 -0.0115,0.0164 -0.0251,0.0279 -0.0376,0.0419 -0.18094,0.11209 0.13137,-0.0724 0.19123,-0.11704 0.0232,-0.0173 -0.0541,0.0199 -0.0813,0.0288 -0.0758,0.025 -0.15197,0.0444 -0.22978,0.0614 -0.14842,0.0247 -0.30008,0.0354 -0.45065,0.0298 -0.13892,-0.019 -0.25589,-0.105331 -0.36469,-0.188261 -0.0871,-0.0739 -0.15052,-0.16985 -0.19176,-0.27575 -0.0356,-0.11534 -0.0359,-0.2369 -0.0374,-0.35637 -7.99e-4,-0.0702 -1.4e-4,-0.13946 0.0129,-0.20821 0,0 -0.34,0.16599 -0.34,0.16599 v 0 c -0.009,0.0704 -0.009,0.1409 -0.006,0.21184 0.003,0.12407 1.3e-4,0.25107 0.0404,0.36993 0.0451,0.11209 0.11498,0.21131 0.20509,0.292 0.0937,0.0682 0.20638,0.14973 0.31422,0.19174 0.0196,0.007 0.0408,0.0117 0.0613,0.0164 0.1539,0.005 0.30894,-0.008 0.4618,-0.0275 0.27404,-0.0488 0.54592,-0.15685 0.75704,-0.34302 0.009,-0.0172 0.0242,-0.0331 0.0332,-0.0509 0.0547,-0.1104 0.0586,-0.25828 0.0681,-0.37816 -0.004,-0.18411 -0.006,-0.36937 -0.0442,-0.55046 -0.0411,-0.182299 -0.0959,-0.362209 -0.19938,-0.519999 -0.0914,-0.1406 -0.1855,-0.28154 -0.31832,-0.38697 -0.13232,-0.0965 -0.27226,-0.18522 -0.42742,-0.24056 -0.15166,-0.0539 -0.29443,-0.0816 -0.45415,-0.0423 -0.20398,0.0553 -0.32152,0.14849 -0.52763,0.26981 -0.0951,0.056 -0.18293,0.1242 -0.26969,0.19206 -0.20211,0.17237 -0.40001,0.35309 -0.55929,0.56694 -0.12994,0.18402 -0.25555,0.37943 -0.25375,0.61299 8e-4,0.0341 2.7e-4,0.0687 0.003,0.10285 0.0168,0.19039 0.0745,0.37598 0.13539,0.55579 0.0902,0.22142 0.19198,0.43731 0.29227,0.65426 0.0785,0.16977 0.15228,0.34243 0.25981,0.49669 0.0552,0.0871 0.113,0.17332 0.16233,0.26408 0,0 0.33797,-0.19107 0.33797,-0.19107 z" />
  </g>
</svg>
